<mxfile host="app.diagrams.net" agent="Mozilla/5.0 (X11; Linux x86_64) AppleWebKit/537.36 (KHTML, like Gecko) Chrome/131.0.0.0 Safari/537.36" version="24.9.3">
  <diagram name="Page-1" id="e-rPcVnQciEfF7ZCzGBB">
    <mxGraphModel dx="1050" dy="502" grid="1" gridSize="10" guides="1" tooltips="1" connect="1" arrows="1" fold="1" page="1" pageScale="1" pageWidth="850" pageHeight="1100" math="0" shadow="0">
      <root>
        <mxCell id="0" />
        <mxCell id="1" parent="0" />
        <mxCell id="01l_Q5DhqC6atmJfHFb7-6" style="edgeStyle=orthogonalEdgeStyle;rounded=0;orthogonalLoop=1;jettySize=auto;html=1;exitX=0.5;exitY=1;exitDx=0;exitDy=0;entryX=0.5;entryY=0;entryDx=0;entryDy=0;" edge="1" parent="1" source="01l_Q5DhqC6atmJfHFb7-1" target="01l_Q5DhqC6atmJfHFb7-4">
          <mxGeometry relative="1" as="geometry" />
        </mxCell>
        <mxCell id="01l_Q5DhqC6atmJfHFb7-1" value="Fact 1" style="ellipse;whiteSpace=wrap;html=1;aspect=fixed;fillColor=#dae8fc;strokeColor=#6c8ebf;" vertex="1" parent="1">
          <mxGeometry x="150" y="80" width="50" height="50" as="geometry" />
        </mxCell>
        <mxCell id="01l_Q5DhqC6atmJfHFb7-7" style="edgeStyle=orthogonalEdgeStyle;rounded=0;orthogonalLoop=1;jettySize=auto;html=1;exitX=0.5;exitY=1;exitDx=0;exitDy=0;entryX=0.137;entryY=-0.08;entryDx=0;entryDy=0;entryPerimeter=0;" edge="1" parent="1" source="01l_Q5DhqC6atmJfHFb7-2" target="01l_Q5DhqC6atmJfHFb7-5">
          <mxGeometry relative="1" as="geometry" />
        </mxCell>
        <mxCell id="01l_Q5DhqC6atmJfHFb7-2" value="Fact 2" style="ellipse;whiteSpace=wrap;html=1;aspect=fixed;fillColor=#dae8fc;strokeColor=#6c8ebf;" vertex="1" parent="1">
          <mxGeometry x="250" y="80" width="50" height="50" as="geometry" />
        </mxCell>
        <mxCell id="01l_Q5DhqC6atmJfHFb7-8" style="edgeStyle=orthogonalEdgeStyle;rounded=0;orthogonalLoop=1;jettySize=auto;html=1;exitX=0.5;exitY=1;exitDx=0;exitDy=0;entryX=0.75;entryY=0;entryDx=0;entryDy=0;" edge="1" parent="1" source="01l_Q5DhqC6atmJfHFb7-3" target="01l_Q5DhqC6atmJfHFb7-5">
          <mxGeometry relative="1" as="geometry" />
        </mxCell>
        <mxCell id="01l_Q5DhqC6atmJfHFb7-3" value="Fact n" style="ellipse;whiteSpace=wrap;html=1;aspect=fixed;fillColor=#dae8fc;strokeColor=#6c8ebf;" vertex="1" parent="1">
          <mxGeometry x="480" y="80" width="50" height="50" as="geometry" />
        </mxCell>
        <mxCell id="01l_Q5DhqC6atmJfHFb7-16" style="edgeStyle=orthogonalEdgeStyle;rounded=0;orthogonalLoop=1;jettySize=auto;html=1;exitX=0.5;exitY=1;exitDx=0;exitDy=0;entryX=0.5;entryY=0;entryDx=0;entryDy=0;" edge="1" parent="1" source="01l_Q5DhqC6atmJfHFb7-4" target="01l_Q5DhqC6atmJfHFb7-10">
          <mxGeometry relative="1" as="geometry" />
        </mxCell>
        <mxCell id="01l_Q5DhqC6atmJfHFb7-4" value="Rule 1" style="rounded=0;whiteSpace=wrap;html=1;" vertex="1" parent="1">
          <mxGeometry x="200" y="190" width="70" height="40" as="geometry" />
        </mxCell>
        <mxCell id="01l_Q5DhqC6atmJfHFb7-13" style="edgeStyle=orthogonalEdgeStyle;rounded=0;orthogonalLoop=1;jettySize=auto;html=1;exitX=0.5;exitY=1;exitDx=0;exitDy=0;entryX=0.5;entryY=0;entryDx=0;entryDy=0;" edge="1" parent="1" source="01l_Q5DhqC6atmJfHFb7-5" target="01l_Q5DhqC6atmJfHFb7-11">
          <mxGeometry relative="1" as="geometry" />
        </mxCell>
        <mxCell id="01l_Q5DhqC6atmJfHFb7-5" value="Rule 2" style="rounded=0;whiteSpace=wrap;html=1;" vertex="1" parent="1">
          <mxGeometry x="400" y="190" width="70" height="40" as="geometry" />
        </mxCell>
        <mxCell id="01l_Q5DhqC6atmJfHFb7-9" value="" style="endArrow=none;html=1;rounded=0;dashed=1;" edge="1" parent="1">
          <mxGeometry width="50" height="50" relative="1" as="geometry">
            <mxPoint x="345" y="104.5" as="sourcePoint" />
            <mxPoint x="425" y="104.5" as="targetPoint" />
          </mxGeometry>
        </mxCell>
        <mxCell id="01l_Q5DhqC6atmJfHFb7-18" style="edgeStyle=orthogonalEdgeStyle;rounded=0;orthogonalLoop=1;jettySize=auto;html=1;exitX=0.5;exitY=1;exitDx=0;exitDy=0;entryX=0.5;entryY=0;entryDx=0;entryDy=0;" edge="1" parent="1" source="01l_Q5DhqC6atmJfHFb7-10" target="01l_Q5DhqC6atmJfHFb7-17">
          <mxGeometry relative="1" as="geometry" />
        </mxCell>
        <mxCell id="01l_Q5DhqC6atmJfHFb7-10" value="Fact n+1" style="ellipse;whiteSpace=wrap;html=1;aspect=fixed;fillColor=#f8cecc;strokeColor=#b85450;" vertex="1" parent="1">
          <mxGeometry x="210" y="280" width="50" height="50" as="geometry" />
        </mxCell>
        <mxCell id="01l_Q5DhqC6atmJfHFb7-19" style="edgeStyle=orthogonalEdgeStyle;rounded=0;orthogonalLoop=1;jettySize=auto;html=1;exitX=0.5;exitY=1;exitDx=0;exitDy=0;" edge="1" parent="1" source="01l_Q5DhqC6atmJfHFb7-11">
          <mxGeometry relative="1" as="geometry">
            <mxPoint x="345" y="390" as="targetPoint" />
          </mxGeometry>
        </mxCell>
        <mxCell id="01l_Q5DhqC6atmJfHFb7-11" value="Fact n+2" style="ellipse;whiteSpace=wrap;html=1;aspect=fixed;fillColor=#f8cecc;strokeColor=#b85450;" vertex="1" parent="1">
          <mxGeometry x="320" y="280" width="50" height="50" as="geometry" />
        </mxCell>
        <mxCell id="01l_Q5DhqC6atmJfHFb7-20" style="edgeStyle=orthogonalEdgeStyle;rounded=0;orthogonalLoop=1;jettySize=auto;html=1;exitX=0.5;exitY=1;exitDx=0;exitDy=0;entryX=0.5;entryY=0;entryDx=0;entryDy=0;" edge="1" parent="1" source="01l_Q5DhqC6atmJfHFb7-12" target="01l_Q5DhqC6atmJfHFb7-17">
          <mxGeometry relative="1" as="geometry" />
        </mxCell>
        <mxCell id="01l_Q5DhqC6atmJfHFb7-12" value="Fact n+m" style="ellipse;whiteSpace=wrap;html=1;aspect=fixed;fillColor=#f8cecc;strokeColor=#b85450;" vertex="1" parent="1">
          <mxGeometry x="470" y="280" width="50" height="50" as="geometry" />
        </mxCell>
        <mxCell id="01l_Q5DhqC6atmJfHFb7-14" style="edgeStyle=orthogonalEdgeStyle;rounded=0;orthogonalLoop=1;jettySize=auto;html=1;exitX=0.5;exitY=1;exitDx=0;exitDy=0;entryX=0.648;entryY=0.056;entryDx=0;entryDy=0;entryPerimeter=0;" edge="1" parent="1" source="01l_Q5DhqC6atmJfHFb7-5" target="01l_Q5DhqC6atmJfHFb7-12">
          <mxGeometry relative="1" as="geometry" />
        </mxCell>
        <mxCell id="01l_Q5DhqC6atmJfHFb7-15" value="" style="endArrow=none;html=1;rounded=0;dashed=1;" edge="1" parent="1">
          <mxGeometry width="50" height="50" relative="1" as="geometry">
            <mxPoint x="385" y="304.5" as="sourcePoint" />
            <mxPoint x="465" y="304.5" as="targetPoint" />
          </mxGeometry>
        </mxCell>
        <mxCell id="01l_Q5DhqC6atmJfHFb7-22" style="edgeStyle=orthogonalEdgeStyle;rounded=0;orthogonalLoop=1;jettySize=auto;html=1;exitX=0.5;exitY=1;exitDx=0;exitDy=0;entryX=0.5;entryY=0;entryDx=0;entryDy=0;" edge="1" parent="1" source="01l_Q5DhqC6atmJfHFb7-17" target="01l_Q5DhqC6atmJfHFb7-21">
          <mxGeometry relative="1" as="geometry" />
        </mxCell>
        <mxCell id="01l_Q5DhqC6atmJfHFb7-17" value="Rule 3" style="rounded=0;whiteSpace=wrap;html=1;" vertex="1" parent="1">
          <mxGeometry x="310" y="390" width="70" height="40" as="geometry" />
        </mxCell>
        <mxCell id="01l_Q5DhqC6atmJfHFb7-21" value="Fact x" style="ellipse;whiteSpace=wrap;html=1;aspect=fixed;fillColor=#d5e8d4;strokeColor=#82b366;" vertex="1" parent="1">
          <mxGeometry x="320" y="460" width="50" height="50" as="geometry" />
        </mxCell>
      </root>
    </mxGraphModel>
  </diagram>
</mxfile>
